<?xml version="1.0" encoding="UTF-8" standalone="no"?>
<svg width="16px" height="16px" viewBox="0 0 16 16" version="1.1" xmlns="http://www.w3.org/2000/svg" xmlns:xlink="http://www.w3.org/1999/xlink" xmlns:sketch="http://www.bohemiancoding.com/sketch/ns">
    <!-- Generator: Sketch 3.5.1 (25234) - http://www.bohemiancoding.com/sketch -->
    <title>search-16-black</title>
    <desc>Created with Sketch.</desc>
    <defs></defs>
    <g id="Black-(#292E31)" stroke="none" stroke-width="1" fill="none" fill-rule="evenodd" sketch:type="MSPage">
        <g id="search-16-black" sketch:type="MSArtboardGroup" fill="#292E31">
            <g sketch:type="MSLayerGroup" transform="translate(0.000000, 1.000000)" id="Fill-208">
                <path d="M2,14 C1.744,14 1.488,13.902 1.293,13.707 C0.902,13.316 0.902,12.683 1.293,12.293 L3.735,9.851 C2.976,8.799 2.565,7.54 2.565,6.217 C2.565,4.557 3.212,2.995 4.387,1.821 C5.561,0.647 7.122,0 8.782,0 C10.443,0 12.005,0.647 13.179,1.821 C14.354,2.995 15,4.557 15,6.217 C15,7.878 14.354,9.44 13.179,10.614 C12.073,11.72 10.604,12.365 9.041,12.429 C8.537,12.452 8.024,12.024 8.001,11.472 C7.978,10.92 8.407,10.454 8.959,10.431 C10.019,10.387 11.015,9.95 11.765,9.2 C12.562,8.403 13,7.344 13,6.217 C13,5.091 12.562,4.032 11.765,3.236 C10.968,2.439 9.909,2 8.782,2 C7.656,2 6.598,2.439 5.801,3.235 C5.004,4.032 4.565,5.091 4.565,6.217 C4.565,7.344 5.004,8.403 5.801,9.2 L6.508,9.907 L2.707,13.707 C2.512,13.902 2.256,14 2,14" sketch:type="MSShapeGroup"></path>
            </g>
        </g>
    </g>
</svg>